<svg id="Layer_1" enable-background="new 0 0 512 512" height="512" viewBox="0 0 512 512" width="512" xmlns="http://www.w3.org/2000/svg"><g><g id="XMLID_252_"><g><g id="XMLID_861_"><g id="XMLID_862_"><g id="XMLID_863_"><g id="XMLID_892_"><g id="XMLID_929_"><g id="XMLID_942_"><g id="XMLID_958_"><g id="XMLID_1467_"><g id="XMLID_1468_"><g id="XMLID_1469_"><g id="XMLID_1470_"><g id="XMLID_1471_"><g id="XMLID_1472_"><g><path d="m512 256c0 38.32-8.42 74.67-23.52 107.31 0 0-129.42 78.635-232.48 78.635s-232.48-78.635-232.48-78.635c-15.1-32.64-23.52-68.99-23.52-107.31 0-141.38 114.62-256 256-256s256 114.62 256 256z" fill="#ff807d"/></g></g></g></g></g></g></g></g></g></g></g></g></g></g></g></g><path d="m392.857 237.739-155.958-156.106-171.004 284.395 7.965 24.087c47.138 22.785 119.505 51.829 182.14 51.829 103.06 0 232.48-78.635 232.48-78.635 10.325-22.317 17.505-46.375 21.023-71.606l-60.897-67.229z" fill="#fc3e53"/><g><path d="m250.613 156.208c11.5-46.349-5.702-71.3-25.778-84.663-25.952-17.273-60.105-17.273-86.057 0-20.076 13.364-37.278 38.314-25.778 84.663l-6.21 98.699h75.016 75.017z" fill="#776d6b"/><path d="m256.82 254.907h-74.25v-196.3c14.77.14 29.51 4.45 42.26 12.94 20.08 13.36 37.28 38.31 25.78 84.66z" fill="#57555c"/><g><path d="m216.557 237.847-34.75 33.56-33.223-33.56-55.252 12.659c-16.055 3.678-27.437 17.963-27.437 34.434v81.089h233.351v-81.089c0-16.47-11.382-30.755-27.437-34.434z" fill="#238cf8"/><g><path d="m299.246 284.939v81.089h-117.439v-94.621l34.349-32.946.4-.613 55.256 12.654c16.055 3.676 27.434 17.968 27.434 34.437z" fill="#0768dd"/></g><g><path d="m181.807 327.073h121.956v38.955h-121.956z" fill="#eae1dc"/></g><path d="m429.967 366.028h-148.88c-13.798 0-25.087-11.289-25.087-25.087v-99.729c0-13.798 11.289-25.087 25.087-25.087h148.88c13.798 0 25.087 11.289 25.087 25.087v99.729c0 13.798-11.289 25.087-25.087 25.087z" fill="#fff"/><path d="m455.051 241.217v99.72c0 13.8-11.29 25.09-25.08 25.09h-74.44v-149.9h74.44c13.79 0 25.08 11.29 25.08 25.09z" fill="#eae1dc"/><g><path id="XMLID_250_" d="m216.489 201.786v36.061l-34.682 41.56-33.224-41.56v-36.061z" fill="#ffc473"/><path d="m216.493 201.786v36.062l-.337.613-34.349 40.946v-77.621z" fill="#ffb74f"/><g><path id="XMLID_59_" d="m246.683 140.157c-2.678-39.426-36.302-61.803-64.147-61.803s-61.468 22.377-64.147 61.803c-7.205 1.35-12.319 8.083-11.517 15.488l1.241 11.456c.842 7.772 7.889 13.442 15.661 12.6l1.338-.145c15.91 41.413 41.585 52.076 57.423 54.498 15.839-2.422 41.513-13.085 57.423-54.498l1.338.145c7.772.842 14.82-4.829 15.661-12.6l1.241-11.456c.804-7.405-4.31-14.138-11.515-15.488z" fill="#ffd097"/><path d="m258.195 155.646-1.238 11.454c-.838 7.778-7.89 13.442-15.655 12.604l-1.338-.15c-6.615 17.193-14.905 29.085-23.47 37.287-12.066 11.566-24.696 15.805-33.961 17.218-.238-.038-.475-.075-.725-.125v-155.564c.25-.013.488-.013.725-.013 27.847 0 61.47 22.37 64.146 61.795 7.214 1.351 12.328 8.091 11.516 15.494z" fill="#ffc473"/></g></g></g><path d="m488.48 363.31c-40.58 87.78-129.42 148.69-232.48 148.69s-191.9-60.91-232.48-148.69z" fill="#776d6b"/><ellipse cx="355.527" cy="291.077" fill="#eae1dc" rx="24.079" ry="24.079" transform="matrix(.23 -.973 .973 .23 -9.447 570.217)"/><path d="m379.611 291.077c0 13.3-10.79 24.08-24.08 24.08v-48.16c13.29 0 24.08 10.78 24.08 24.08z" fill="#ada19c"/><path d="m236.14 91.551c-4.65-6.691-11.331-11.717-18.407-15.474-21.772-11.561-48.555-11.561-70.327 0-7.075 3.758-13.756 8.783-18.406 15.474-15.5 22.304-10.61 48.642-10.61 48.642 42.89 5.932 64.181-29.185 64.181-29.185s21.291 35.117 64.18 29.185c0 0 4.889-26.338-10.611-48.642z" fill="#776d6b"/><path d="m246.75 140.197c-42.89 5.93-64.18-29.19-64.18-29.19v-43.6c12.14 0 24.27 2.89 35.16 8.67 7.08 3.76 13.76 8.78 18.41 15.47 15.5 22.31 10.61 48.65 10.61 48.65z" fill="#57555c"/></g><path d="m488.48 363.31c-40.58 87.78-129.42 148.69-232.48 148.69v-148.69z" fill="#57555c"/></g></svg>